<svg xmlns="http://www.w3.org/2000/svg" viewBox="0 0 512 512">
  <rect width="512" height="512" rx="100" fill="#2563eb"/>
  <path d="M256 128C185.3 128 128 185.3 128 256C128 326.7 185.3 384 256 384C326.7 384 384 326.7 384 256C384 185.3 326.7 128 256 128ZM319.4 207H288V192C288 183.2 280.8 176 272 176H240C231.2 176 224 183.2 224 192V207H192.6C183.8 207 176.6 214.2 176.6 223V255C176.6 263.8 183.8 271 192.6 271H288V288H192.6C183.8 288 176.6 295.2 176.6 304V336C176.6 344.8 183.8 352 192.6 352H224V368C224 376.8 231.2 384 240 384H272C280.8 384 288 376.8 288 368V352H319.4C328.2 352 335.4 344.8 335.4 336V304C335.4 295.2 328.2 288 319.4 288H224V271H319.4C328.2 271 335.4 263.8 335.4 255V223C335.4 214.2 328.2 207 319.4 207Z" fill="white"/>
</svg>
